<svg width="549" height="294" viewBox="0 0 549 294" fill="none" xmlns="http://www.w3.org/2000/svg">
<path d="M505.347 43.733C476.796 15.184 442.349 0.907997 401.994 0.907997H146.181C105.832 0.907997 71.374 15.183 42.828 43.733C14.275 72.283 0 106.734 0 147.086C0 187.443 14.279 221.891 42.828 250.439C71.374 278.987 105.828 293.268 146.181 293.268C182.728 293.268 214.889 281.081 242.682 256.719H305.493C333.284 281.081 365.445 293.268 401.994 293.268C442.342 293.268 476.796 278.994 505.347 250.439C533.899 221.885 548.176 187.444 548.176 147.086C548.176 106.734 533.898 72.283 505.347 43.733ZM237.541 165.36C237.541 168.026 236.687 170.216 234.973 171.923C233.26 173.638 231.073 174.493 228.406 174.493H173.588V229.312C173.588 231.978 172.734 234.168 171.02 235.876C169.307 237.59 167.121 238.445 164.453 238.445H127.908C125.244 238.445 123.054 237.59 121.341 235.876C119.63 234.168 118.776 231.978 118.776 229.312V174.493H63.953C61.289 174.493 59.099 173.638 57.386 171.923C55.675 170.216 54.821 168.026 54.821 165.36V128.815C54.821 126.151 55.675 123.961 57.386 122.248C59.099 120.534 61.289 119.68 63.953 119.68H118.774V64.862C118.774 62.198 119.628 60.008 121.339 58.295C123.051 56.58 125.242 55.727 127.906 55.727H164.451C167.118 55.727 169.305 56.581 171.018 58.295C172.732 60.008 173.586 62.198 173.586 64.862V119.68H228.404C231.071 119.68 233.258 120.534 234.971 122.248C236.685 123.961 237.539 126.151 237.539 128.815V165.36H237.541ZM391.29 209.469C384.151 216.608 375.537 220.18 365.445 220.18C355.364 220.18 346.747 216.608 339.611 209.469C332.472 202.337 328.904 193.72 328.904 183.632C328.904 173.543 332.472 164.93 339.611 157.794C346.747 150.662 355.364 147.086 365.445 147.086C375.537 147.086 384.151 150.662 391.29 157.794C398.422 164.93 401.994 173.543 401.994 183.632C401.994 193.72 398.422 202.337 391.29 209.469ZM464.373 136.38C457.242 143.515 448.625 147.086 438.536 147.086C428.447 147.086 419.834 143.519 412.699 136.38C405.56 129.24 401.991 120.63 401.991 110.539C401.991 100.454 405.56 91.841 412.699 84.704C419.834 77.565 428.447 73.997 438.536 73.997C448.625 73.997 457.242 77.565 464.373 84.704C471.512 91.841 475.085 100.454 475.085 110.539C475.085 120.629 471.516 129.243 464.373 136.38Z" fill="white"/>
</svg>
